<svg xmlns="http://www.w3.org/2000/svg" viewBox="0 0 28 26" role="img" aria-label="Gatecrusher Ogre boss pixel sprite" shape-rendering="crispEdges">
  <rect x="5" y="0" width="2" height="1" fill="#140d0a"/>
  <rect x="7" y="0" width="14" height="1" fill="#6b6d3d"/>
  <rect x="21" y="0" width="2" height="1" fill="#140d0a"/>
  <rect x="4" y="1" width="1" height="1" fill="#140d0a"/>
  <rect x="5" y="1" width="18" height="1" fill="#6b6d3d"/>
  <rect x="23" y="1" width="1" height="1" fill="#140d0a"/>
  <rect x="3" y="2" width="1" height="1" fill="#140d0a"/>
  <rect x="4" y="2" width="9" height="1" fill="#6b6d3d"/>
  <rect x="13" y="2" width="2" height="1" fill="#8f9354"/>
  <rect x="15" y="2" width="9" height="1" fill="#6b6d3d"/>
  <rect x="24" y="2" width="1" height="1" fill="#140d0a"/>
  <rect x="3" y="3" width="1" height="1" fill="#140d0a"/>
  <rect x="4" y="3" width="1" height="1" fill="#6b6d3d"/>
  <rect x="5" y="3" width="2" height="1" fill="#3f421f"/>
  <rect x="7" y="3" width="6" height="1" fill="#6b6d3d"/>
  <rect x="13" y="3" width="2" height="1" fill="#8f9354"/>
  <rect x="15" y="3" width="6" height="1" fill="#6b6d3d"/>
  <rect x="21" y="3" width="2" height="1" fill="#3f421f"/>
  <rect x="23" y="3" width="1" height="1" fill="#6b6d3d"/>
  <rect x="24" y="3" width="1" height="1" fill="#140d0a"/>
  <rect x="3" y="4" width="1" height="1" fill="#140d0a"/>
  <rect x="4" y="4" width="1" height="1" fill="#6b6d3d"/>
  <rect x="5" y="4" width="1" height="1" fill="#3f421f"/>
  <rect x="6" y="4" width="2" height="1" fill="#ff9b4a"/>
  <rect x="8" y="4" width="12" height="1" fill="#6b6d3d"/>
  <rect x="20" y="4" width="2" height="1" fill="#ff9b4a"/>
  <rect x="22" y="4" width="1" height="1" fill="#3f421f"/>
  <rect x="23" y="4" width="1" height="1" fill="#6b6d3d"/>
  <rect x="24" y="4" width="1" height="1" fill="#140d0a"/>
  <rect x="3" y="5" width="1" height="1" fill="#140d0a"/>
  <rect x="4" y="5" width="20" height="1" fill="#6b6d3d"/>
  <rect x="24" y="5" width="1" height="1" fill="#140d0a"/>
  <rect x="3" y="6" width="1" height="1" fill="#140d0a"/>
  <rect x="4" y="6" width="2" height="1" fill="#6b6d3d"/>
  <rect x="6" y="6" width="16" height="1" fill="#3f421f"/>
  <rect x="22" y="6" width="2" height="1" fill="#6b6d3d"/>
  <rect x="24" y="6" width="1" height="1" fill="#140d0a"/>
  <rect x="3" y="7" width="1" height="1" fill="#140d0a"/>
  <rect x="4" y="7" width="1" height="1" fill="#6b6d3d"/>
  <rect x="5" y="7" width="1" height="1" fill="#e8dcc0"/>
  <rect x="6" y="7" width="1" height="1" fill="#6b6d3d"/>
  <rect x="7" y="7" width="14" height="1" fill="#3f421f"/>
  <rect x="21" y="7" width="1" height="1" fill="#6b6d3d"/>
  <rect x="22" y="7" width="1" height="1" fill="#e8dcc0"/>
  <rect x="23" y="7" width="1" height="1" fill="#6b6d3d"/>
  <rect x="24" y="7" width="1" height="1" fill="#140d0a"/>
  <rect x="4" y="8" width="1" height="1" fill="#140d0a"/>
  <rect x="5" y="8" width="18" height="1" fill="#6b6d3d"/>
  <rect x="23" y="8" width="1" height="1" fill="#140d0a"/>
  <rect x="5" y="9" width="2" height="1" fill="#140d0a"/>
  <rect x="7" y="9" width="14" height="1" fill="#6b6d3d"/>
  <rect x="21" y="9" width="2" height="1" fill="#140d0a"/>
  <rect x="2" y="10" width="2" height="1" fill="#140d0a"/>
  <rect x="4" y="10" width="20" height="1" fill="#6b6d3d"/>
  <rect x="24" y="10" width="2" height="1" fill="#140d0a"/>
  <rect x="1" y="11" width="1" height="1" fill="#140d0a"/>
  <rect x="2" y="11" width="24" height="1" fill="#6b6d3d"/>
  <rect x="26" y="11" width="1" height="1" fill="#140d0a"/>
  <rect x="0" y="12" width="1" height="1" fill="#140d0a"/>
  <rect x="1" y="12" width="6" height="1" fill="#6b6d3d"/>
  <rect x="7" y="12" width="1" height="1" fill="#140d0a"/>
  <rect x="8" y="12" width="12" height="1" fill="#6b6d3d"/>
  <rect x="20" y="12" width="1" height="1" fill="#140d0a"/>
  <rect x="21" y="12" width="6" height="1" fill="#6b6d3d"/>
  <rect x="27" y="12" width="1" height="1" fill="#140d0a"/>
  <rect x="0" y="13" width="1" height="1" fill="#140d0a"/>
  <rect x="1" y="13" width="5" height="1" fill="#6b6d3d"/>
  <rect x="6" y="13" width="1" height="1" fill="#140d0a"/>
  <rect x="7" y="13" width="14" height="1" fill="#6b6d3d"/>
  <rect x="21" y="13" width="1" height="1" fill="#140d0a"/>
  <rect x="22" y="13" width="5" height="1" fill="#6b6d3d"/>
  <rect x="27" y="13" width="1" height="1" fill="#140d0a"/>
  <rect x="0" y="14" width="1" height="1" fill="#140d0a"/>
  <rect x="1" y="14" width="5" height="1" fill="#6b6d3d"/>
  <rect x="6" y="14" width="1" height="1" fill="#140d0a"/>
  <rect x="7" y="14" width="14" height="1" fill="#6b6d3d"/>
  <rect x="21" y="14" width="1" height="1" fill="#140d0a"/>
  <rect x="22" y="14" width="5" height="1" fill="#6b6d3d"/>
  <rect x="27" y="14" width="1" height="1" fill="#140d0a"/>
  <rect x="0" y="15" width="1" height="1" fill="#140d0a"/>
  <rect x="1" y="15" width="1" height="1" fill="#8f9354"/>
  <rect x="2" y="15" width="4" height="1" fill="#6b6d3d"/>
  <rect x="6" y="15" width="1" height="1" fill="#140d0a"/>
  <rect x="7" y="15" width="14" height="1" fill="#6b6d3d"/>
  <rect x="21" y="15" width="1" height="1" fill="#140d0a"/>
  <rect x="22" y="15" width="4" height="1" fill="#6b6d3d"/>
  <rect x="26" y="15" width="1" height="1" fill="#8f9354"/>
  <rect x="27" y="15" width="1" height="1" fill="#140d0a"/>
  <rect x="0" y="16" width="1" height="1" fill="#140d0a"/>
  <rect x="1" y="16" width="4" height="1" fill="#6b6d3d"/>
  <rect x="5" y="16" width="2" height="1" fill="#140d0a"/>
  <rect x="7" y="16" width="14" height="1" fill="#d8b45a"/>
  <rect x="21" y="16" width="2" height="1" fill="#140d0a"/>
  <rect x="23" y="16" width="4" height="1" fill="#6b6d3d"/>
  <rect x="27" y="16" width="1" height="1" fill="#140d0a"/>
  <rect x="0" y="17" width="1" height="1" fill="#140d0a"/>
  <rect x="1" y="17" width="4" height="1" fill="#6b6d3d"/>
  <rect x="5" y="17" width="1" height="1" fill="#140d0a"/>
  <rect x="7" y="17" width="1" height="1" fill="#140d0a"/>
  <rect x="8" y="17" width="12" height="1" fill="#4a2f1e"/>
  <rect x="20" y="17" width="1" height="1" fill="#140d0a"/>
  <rect x="22" y="17" width="1" height="1" fill="#140d0a"/>
  <rect x="23" y="17" width="4" height="1" fill="#6b6d3d"/>
  <rect x="27" y="17" width="1" height="1" fill="#140d0a"/>
  <rect x="0" y="18" width="1" height="1" fill="#140d0a"/>
  <rect x="1" y="18" width="4" height="1" fill="#6b6d3d"/>
  <rect x="5" y="18" width="1" height="1" fill="#140d0a"/>
  <rect x="7" y="18" width="1" height="1" fill="#140d0a"/>
  <rect x="8" y="18" width="12" height="1" fill="#4a2f1e"/>
  <rect x="20" y="18" width="1" height="1" fill="#140d0a"/>
  <rect x="22" y="18" width="1" height="1" fill="#140d0a"/>
  <rect x="23" y="18" width="4" height="1" fill="#6b6d3d"/>
  <rect x="27" y="18" width="1" height="1" fill="#140d0a"/>
  <rect x="1" y="19" width="1" height="1" fill="#140d0a"/>
  <rect x="2" y="19" width="2" height="1" fill="#6b6d3d"/>
  <rect x="4" y="19" width="1" height="1" fill="#140d0a"/>
  <rect x="7" y="19" width="1" height="1" fill="#140d0a"/>
  <rect x="8" y="19" width="12" height="1" fill="#4a2f1e"/>
  <rect x="20" y="19" width="1" height="1" fill="#140d0a"/>
  <rect x="23" y="19" width="1" height="1" fill="#140d0a"/>
  <rect x="24" y="19" width="2" height="1" fill="#6b6d3d"/>
  <rect x="26" y="19" width="1" height="1" fill="#140d0a"/>
  <rect x="7" y="20" width="1" height="1" fill="#140d0a"/>
  <rect x="8" y="20" width="12" height="1" fill="#4a2f1e"/>
  <rect x="20" y="20" width="1" height="1" fill="#140d0a"/>
  <rect x="7" y="21" width="1" height="1" fill="#140d0a"/>
  <rect x="8" y="21" width="12" height="1" fill="#4a2f1e"/>
  <rect x="20" y="21" width="1" height="1" fill="#140d0a"/>
  <rect x="7" y="22" width="1" height="1" fill="#140d0a"/>
  <rect x="8" y="22" width="4" height="1" fill="#4a2f1e"/>
  <rect x="12" y="22" width="1" height="1" fill="#140d0a"/>
  <rect x="15" y="22" width="1" height="1" fill="#140d0a"/>
  <rect x="16" y="22" width="4" height="1" fill="#4a2f1e"/>
  <rect x="20" y="22" width="1" height="1" fill="#140d0a"/>
  <rect x="7" y="23" width="1" height="1" fill="#140d0a"/>
  <rect x="8" y="23" width="4" height="1" fill="#4a2f1e"/>
  <rect x="12" y="23" width="1" height="1" fill="#140d0a"/>
  <rect x="15" y="23" width="1" height="1" fill="#140d0a"/>
  <rect x="16" y="23" width="4" height="1" fill="#4a2f1e"/>
  <rect x="20" y="23" width="1" height="1" fill="#140d0a"/>
  <rect x="6" y="24" width="1" height="1" fill="#140d0a"/>
  <rect x="7" y="24" width="4" height="1" fill="#4a2f1e"/>
  <rect x="11" y="24" width="1" height="1" fill="#140d0a"/>
  <rect x="16" y="24" width="1" height="1" fill="#140d0a"/>
  <rect x="17" y="24" width="4" height="1" fill="#4a2f1e"/>
  <rect x="21" y="24" width="1" height="1" fill="#140d0a"/>
  <rect x="6" y="25" width="6" height="1" fill="#140d0a"/>
  <rect x="16" y="25" width="6" height="1" fill="#140d0a"/>
</svg>
