<svg xmlns="http://www.w3.org/2000/svg" viewBox="0 0 28 20" role="img" aria-label="Emerald Wyrm boss pixel sprite" shape-rendering="crispEdges">
  <rect x="3" y="0" width="1" height="1" fill="#140d0a"/>
  <rect x="4" y="0" width="1" height="1" fill="#e8dcc0"/>
  <rect x="5" y="0" width="1" height="1" fill="#140d0a"/>
  <rect x="22" y="0" width="1" height="1" fill="#140d0a"/>
  <rect x="23" y="0" width="1" height="1" fill="#e8dcc0"/>
  <rect x="24" y="0" width="1" height="1" fill="#140d0a"/>
  <rect x="2" y="1" width="1" height="1" fill="#140d0a"/>
  <rect x="3" y="1" width="2" height="1" fill="#e8dcc0"/>
  <rect x="5" y="1" width="1" height="1" fill="#140d0a"/>
  <rect x="22" y="1" width="1" height="1" fill="#140d0a"/>
  <rect x="23" y="1" width="2" height="1" fill="#e8dcc0"/>
  <rect x="25" y="1" width="1" height="1" fill="#140d0a"/>
  <rect x="2" y="2" width="1" height="1" fill="#140d0a"/>
  <rect x="3" y="2" width="2" height="1" fill="#e8dcc0"/>
  <rect x="5" y="2" width="1" height="1" fill="#140d0a"/>
  <rect x="8" y="2" width="12" height="1" fill="#140d0a"/>
  <rect x="22" y="2" width="1" height="1" fill="#140d0a"/>
  <rect x="23" y="2" width="2" height="1" fill="#e8dcc0"/>
  <rect x="25" y="2" width="1" height="1" fill="#140d0a"/>
  <rect x="3" y="3" width="1" height="1" fill="#140d0a"/>
  <rect x="4" y="3" width="1" height="1" fill="#e8dcc0"/>
  <rect x="5" y="3" width="3" height="1" fill="#140d0a"/>
  <rect x="8" y="3" width="12" height="1" fill="#3e8455"/>
  <rect x="20" y="3" width="3" height="1" fill="#140d0a"/>
  <rect x="23" y="3" width="1" height="1" fill="#e8dcc0"/>
  <rect x="24" y="3" width="1" height="1" fill="#140d0a"/>
  <rect x="4" y="4" width="1" height="1" fill="#140d0a"/>
  <rect x="5" y="4" width="1" height="1" fill="#235238"/>
  <rect x="6" y="4" width="16" height="1" fill="#3e8455"/>
  <rect x="22" y="4" width="1" height="1" fill="#235238"/>
  <rect x="23" y="4" width="1" height="1" fill="#140d0a"/>
  <rect x="4" y="5" width="1" height="1" fill="#140d0a"/>
  <rect x="5" y="5" width="1" height="1" fill="#3e8455"/>
  <rect x="6" y="5" width="2" height="1" fill="#ffd94d"/>
  <rect x="8" y="5" width="12" height="1" fill="#3e8455"/>
  <rect x="20" y="5" width="2" height="1" fill="#ffd94d"/>
  <rect x="22" y="5" width="1" height="1" fill="#3e8455"/>
  <rect x="23" y="5" width="1" height="1" fill="#140d0a"/>
  <rect x="3" y="6" width="2" height="1" fill="#140d0a"/>
  <rect x="5" y="6" width="18" height="1" fill="#3e8455"/>
  <rect x="23" y="6" width="2" height="1" fill="#140d0a"/>
  <rect x="2" y="7" width="1" height="1" fill="#140d0a"/>
  <rect x="3" y="7" width="22" height="1" fill="#3e8455"/>
  <rect x="25" y="7" width="1" height="1" fill="#140d0a"/>
  <rect x="2" y="8" width="1" height="1" fill="#140d0a"/>
  <rect x="3" y="8" width="1" height="1" fill="#3e8455"/>
  <rect x="4" y="8" width="1" height="1" fill="#e8dcc0"/>
  <rect x="5" y="8" width="1" height="1" fill="#3e8455"/>
  <rect x="6" y="8" width="1" height="1" fill="#e8dcc0"/>
  <rect x="7" y="8" width="1" height="1" fill="#3e8455"/>
  <rect x="8" y="8" width="1" height="1" fill="#e8dcc0"/>
  <rect x="9" y="8" width="1" height="1" fill="#3e8455"/>
  <rect x="10" y="8" width="1" height="1" fill="#e8dcc0"/>
  <rect x="11" y="8" width="6" height="1" fill="#3e8455"/>
  <rect x="17" y="8" width="1" height="1" fill="#e8dcc0"/>
  <rect x="18" y="8" width="1" height="1" fill="#3e8455"/>
  <rect x="19" y="8" width="1" height="1" fill="#e8dcc0"/>
  <rect x="20" y="8" width="1" height="1" fill="#3e8455"/>
  <rect x="21" y="8" width="1" height="1" fill="#e8dcc0"/>
  <rect x="22" y="8" width="1" height="1" fill="#3e8455"/>
  <rect x="23" y="8" width="1" height="1" fill="#e8dcc0"/>
  <rect x="24" y="8" width="1" height="1" fill="#3e8455"/>
  <rect x="25" y="8" width="1" height="1" fill="#140d0a"/>
  <rect x="3" y="9" width="2" height="1" fill="#140d0a"/>
  <rect x="5" y="9" width="18" height="1" fill="#3e8455"/>
  <rect x="23" y="9" width="2" height="1" fill="#140d0a"/>
  <rect x="5" y="10" width="3" height="1" fill="#140d0a"/>
  <rect x="8" y="10" width="1" height="1" fill="#3e8455"/>
  <rect x="9" y="10" width="1" height="1" fill="#5cb877"/>
  <rect x="10" y="10" width="8" height="1" fill="#3e8455"/>
  <rect x="18" y="10" width="1" height="1" fill="#5cb877"/>
  <rect x="19" y="10" width="1" height="1" fill="#3e8455"/>
  <rect x="20" y="10" width="3" height="1" fill="#140d0a"/>
  <rect x="1" y="11" width="1" height="1" fill="#140d0a"/>
  <rect x="2" y="11" width="2" height="1" fill="#35664a"/>
  <rect x="4" y="11" width="2" height="1" fill="#140d0a"/>
  <rect x="6" y="11" width="16" height="1" fill="#3e8455"/>
  <rect x="22" y="11" width="2" height="1" fill="#140d0a"/>
  <rect x="24" y="11" width="2" height="1" fill="#35664a"/>
  <rect x="26" y="11" width="1" height="1" fill="#140d0a"/>
  <rect x="0" y="12" width="1" height="1" fill="#140d0a"/>
  <rect x="1" y="12" width="4" height="1" fill="#35664a"/>
  <rect x="5" y="12" width="1" height="1" fill="#140d0a"/>
  <rect x="6" y="12" width="2" height="1" fill="#3e8455"/>
  <rect x="8" y="12" width="1" height="1" fill="#5cb877"/>
  <rect x="9" y="12" width="10" height="1" fill="#3e8455"/>
  <rect x="19" y="12" width="1" height="1" fill="#5cb877"/>
  <rect x="20" y="12" width="2" height="1" fill="#3e8455"/>
  <rect x="22" y="12" width="1" height="1" fill="#140d0a"/>
  <rect x="23" y="12" width="4" height="1" fill="#35664a"/>
  <rect x="27" y="12" width="1" height="1" fill="#140d0a"/>
  <rect x="0" y="13" width="1" height="1" fill="#140d0a"/>
  <rect x="1" y="13" width="4" height="1" fill="#35664a"/>
  <rect x="5" y="13" width="1" height="1" fill="#140d0a"/>
  <rect x="6" y="13" width="1" height="1" fill="#3e8455"/>
  <rect x="7" y="13" width="14" height="1" fill="#b7d49a"/>
  <rect x="21" y="13" width="1" height="1" fill="#3e8455"/>
  <rect x="22" y="13" width="1" height="1" fill="#140d0a"/>
  <rect x="23" y="13" width="4" height="1" fill="#35664a"/>
  <rect x="27" y="13" width="1" height="1" fill="#140d0a"/>
  <rect x="0" y="14" width="1" height="1" fill="#140d0a"/>
  <rect x="1" y="14" width="4" height="1" fill="#35664a"/>
  <rect x="5" y="14" width="1" height="1" fill="#140d0a"/>
  <rect x="6" y="14" width="1" height="1" fill="#3e8455"/>
  <rect x="7" y="14" width="14" height="1" fill="#b7d49a"/>
  <rect x="21" y="14" width="1" height="1" fill="#3e8455"/>
  <rect x="22" y="14" width="1" height="1" fill="#140d0a"/>
  <rect x="23" y="14" width="4" height="1" fill="#35664a"/>
  <rect x="27" y="14" width="1" height="1" fill="#140d0a"/>
  <rect x="1" y="15" width="1" height="1" fill="#140d0a"/>
  <rect x="2" y="15" width="2" height="1" fill="#35664a"/>
  <rect x="4" y="15" width="1" height="1" fill="#140d0a"/>
  <rect x="5" y="15" width="1" height="1" fill="#3e8455"/>
  <rect x="6" y="15" width="16" height="1" fill="#b7d49a"/>
  <rect x="22" y="15" width="1" height="1" fill="#3e8455"/>
  <rect x="23" y="15" width="1" height="1" fill="#140d0a"/>
  <rect x="24" y="15" width="2" height="1" fill="#35664a"/>
  <rect x="26" y="15" width="1" height="1" fill="#140d0a"/>
  <rect x="2" y="16" width="3" height="1" fill="#140d0a"/>
  <rect x="5" y="16" width="1" height="1" fill="#3e8455"/>
  <rect x="6" y="16" width="16" height="1" fill="#b7d49a"/>
  <rect x="22" y="16" width="1" height="1" fill="#3e8455"/>
  <rect x="23" y="16" width="3" height="1" fill="#140d0a"/>
  <rect x="4" y="17" width="1" height="1" fill="#140d0a"/>
  <rect x="5" y="17" width="2" height="1" fill="#3e8455"/>
  <rect x="7" y="17" width="14" height="1" fill="#b7d49a"/>
  <rect x="21" y="17" width="2" height="1" fill="#3e8455"/>
  <rect x="23" y="17" width="1" height="1" fill="#140d0a"/>
  <rect x="4" y="18" width="1" height="1" fill="#140d0a"/>
  <rect x="5" y="18" width="1" height="1" fill="#235238"/>
  <rect x="6" y="18" width="16" height="1" fill="#3e8455"/>
  <rect x="22" y="18" width="1" height="1" fill="#235238"/>
  <rect x="23" y="18" width="1" height="1" fill="#140d0a"/>
  <rect x="5" y="19" width="18" height="1" fill="#140d0a"/>
</svg>
